<?xml version="1.0" encoding="UTF-8"?>
<!-- Generator: visioncortex VTracer 0.6.12 -->
<svg version="1.1" xmlns="http://www.w3.org/2000/svg" width="1024" height="1024">
<path d="M0 0 C30.38070182665922 -0.7937950596038945 58.42575697173754 6.36870622813268 87.20735168457031 15.316024780273438 C92.80611878599814 17.047936180037937 98.43086085689686 18.644678234553623 104.10107421875 20.12451171875 C104.82979736328127 20.315937500000018 105.55852050781255 20.50736328124998 106.309326171875 20.70458984375 C112.4859129153665 22.285461978991066 118.24242709076793 23.188943586309563 124.62451171875 23.15966796875 C125.86845703125005 23.15644531250001 127.11240234374998 23.153222656250023 128.39404296875 23.14990234375 C129.67923828125004 23.141523437499984 130.96443359374996 23.133144531250025 132.28857421875 23.12451171875 C133.59697265625005 23.120000000000005 134.90537109374998 23.11548828125001 136.25341796875 23.11083984375 C139.4735170253242 23.099087657412156 142.69352192115036 23.082657151709554 145.91357421875 23.06201171875 C145.58357421874996 22.402011718749975 145.25357421875003 21.742011718750007 144.91357421875 21.06201171875 C144.37039848988593 16.111098517956634 144.391154731288 12.167129865304105 146.53857421875 7.62451171875 C150.22055446161403 3.651848825133527 153.46750188525084 2.207762092284497 158.86669921875 1.66357421875 C160.29896393390243 1.651816698253299 161.7315104662871 1.6602935144531443 163.16357421875 1.68701171875 C163.9150170898438 1.692087402343759 164.66645996093746 1.6971630859375182 165.440673828125 1.702392578125 C170.49243538563326 1.8161538285850156 174.85224014579103 2.5085142397031746 179.54248046875 4.50341796875 C184.76714574648872 5.734269920507245 190.47891710928536 3.965067855356722 195.64306640625 2.90625 C237.0308904684157 -5.175338711623056 287.4345007026594 5.626815351662401 322.97607421875 28.12451171875 C324.298712518549 29.089939882321005 325.61034375838244 30.070541104822723 326.91357421875 31.06201171875 C327.2260510253907 31.297467041015636 327.2260510253907 31.297467041015636 328.807373046875 32.489013671875 C331.6583005593866 34.94379776269386 333.6191041270723 36.85010422029393 334.524169921875 40.574951171875 C334.7128612328604 43.477080322913594 334.67825192516307 46.282237141748624 334.53857421875 49.18701171875 C334.5111010742188 50.20802978515627 334.4836279296875 51.229047851562484 334.455322265625 52.281005859375 C334.04836303719617 63.06842405968598 332.92680196798244 73.38100419988297 325.91357421875 82.06201171875 C325.4329956054687 82.47797607421876 324.9524169921875 82.89394042968752 324.457275390625 83.322509765625 C322.4675573824436 85.5646006731518 321.8443965907313 87.62737672563651 320.93310546875 90.47998046875 C320.5774047851562 91.56271240234378 320.2217041015625 92.6454443359375 319.855224609375 93.760986328125 C319.48260498046875 94.91219970703128 319.1099853515625 96.0634130859375 318.72607421875 97.24951171875 C314.884157065075 108.76097800961071 310.6786051122067 119.91446537856507 303.91357421875 130.06201171875 C301.2080078125 130.402587890625 301.2080078125 130.402587890625 297.81201171875 130.35498046875 C296.60029296874995 130.34531249999998 295.38857421875 130.33564453125 294.14013671875 130.32568359375 C292.86912109375 130.300546875 291.59810546874996 130.27541015625002 290.28857421875 130.24951171875 C289.00982421875005 130.2359765625 287.73107421875 130.22244140625003 286.41357421875 130.20849609375 C283.24672953065556 130.1730463397788 280.0801002498574 130.1192380928062 276.91357421875 130.06201171875 C276.58357421874996 126.10201171875002 276.25357421875003 122.14201171874998 275.91357421875 118.06201171875 C275.06794921874996 119.01076171875002 274.22232421875003 119.95951171874998 273.35107421875 120.93701171875 C263.4376514519847 130.79071507125764 250.49557616570382 137.30007046016794 237.91357421875 143.06201171875 C236.80498046875005 143.58408203124998 235.69638671874998 144.10615234374995 234.55419921875 144.64404296875 C221.91009907414707 150.16491158027588 208.29991596261766 152.92036216470922 194.91357421875 156.06201171875 C206.83324875147264 163.5861446667376 217.89333862509852 167.86750594790487 231.68505859375 170.64599609375 C242.66420099604727 173.047472096717 251.42129321692676 177.67661875855458 257.91357421875 187.06201171875 C261.7402532778518 193.3413990175136 262.46015161961714 198.78949574610056 261.91357421875 206.06201171875 C260.14404296875 206.75732421875 260.14404296875 206.75732421875 257.91357421875 207.06201171875 C256.08935546875 205.80419921875 256.08935546875 205.80419921875 254.22607421875 203.93701171875 C250.16032044983922 200.11627512612006 245.87943757823575 197.55643845256577 240.91357421875 195.06201171875 C240.58357421874996 195.39201171875004 240.25357421875003 195.72201171874997 239.91357421875 196.06201171875 C240.25130859374997 196.56990234374996 240.58904296875005 197.07779296875003 240.93701171875 197.60107421875 C245.64669574691038 204.8697773142345 247.25911537334628 210.42348285384412 246.91357421875 219.06201171875 C245.59357421874995 219.72201171874997 244.27357421875 220.38201171874994 242.91357421875 221.06201171875 C242.53845703125 220.62759765625003 242.53845703125 220.62759765625003 240.64013671875 218.42919921875 C234.67039012608143 211.65884806826625 229.1685167789983 206.0616409680738 220.91357421875 202.06201171875 C221.41888671874995 202.96822265624996 221.92419921875 203.87443359375004 222.44482421875 204.80810546875 C229.0872232915034 217.10727911453273 229.0872232915034 217.10727911453273 227.91357421875 225.06201171875 C227.25357421875003 226.05201171875 226.59357421874995 227.04201171875002 225.91357421875 228.06201171875 C221.73726047168373 226.50803451053935 219.48835934549902 223.42988416158528 216.78857421875 220.06201171875 C203.09829401925367 203.45052016423824 203.09829401925367 203.45052016423824 196.91357421875 201.06201171875 C194.7968749999999 201.291015625 194.7968749999999 201.291015625 192.48388671875 201.91357421875 C176.95166127384425 205.4454350760501 158.89525097207127 204.4413386066875 143.91357421875 199.06201171875 C142.71990234375005 198.63791015624997 141.52623046875 198.21380859374995 140.29638671875 197.77685546875 C127.00059308764628 192.5545470293996 115.97044031153757 184.11887781153757 105.91357421875 174.06201171875 C113.16202008118466 186.62928304338072 122.25206293250358 196.46133094364416 133.91357421875 205.06201171875 C130.32409574350174 208.9223942298661 126.59912557183497 211.77082488271947 122.03857421875 214.43701171875 C121.38002441406252 214.8242138671875 120.72147460937504 215.211416015625 120.04296875 215.6103515625 C104.95251254394975 224.3355879644272 82.77638149528161 236.1784371735332 64.91357421875 235.06201171875 C64.92517578125 234.45035156250003 64.92517578125 234.45035156250003 64.98388671875 231.35498046875 C65.4387823996359 197.20360171953575 58.88309861643529 167.4252316130303 35.91357421875 141.06201171875 C35.37345703124993 140.43681640625005 34.83333984375008 139.81162109374998 34.27685546875 139.16748046875 C19.019102322754975 122.7567484956017 -3.403806930498831 113.20930317966543 -25.51611328125 112.14013671875 C-26.364316406250055 112.11435546874998 -27.212519531249995 112.08857421875001 -28.08642578125 112.06201171875 C-27.417402343749927 112.18576171874997 -26.748378906250082 112.30951171875 -26.05908203125 112.43701171875 C1.1883436705361419 118.28880784262356 23.02792019433673 136.5954701032972 38.10107421875 159.36669921875 C49.2216945301775 177.60620147196266 53.12541599677843 197.75497877450744 53.22607421875 218.87451171875 C53.23171386718752 219.99527099609372 53.237353515625045 221.11603027343745 53.2431640625 222.270751953125 C53.17847537351486 229.70501730335093 52.35244372523209 236.77047666386386 50.91357421875 244.06201171875 C51.29316284179686 244.05415649414067 51.29316284179686 244.05415649414067 53.214111328125 244.014404296875 C77.60491439212228 243.57704178449194 102.89476714245086 244.02109360914687 122.91357421875 260.06201171875 C125.82218270533656 262.88248055422787 128.56323361424552 265.7553720717251 130.91357421875 269.06201171875 C130.91357421875 269.7220117187501 130.91357421875 270.38201171874994 130.91357421875 271.06201171875 C107.81691261261767 271.29607105050184 84.72044778050247 271.4721785884426 61.62283897399902 271.58013343811035 C50.89708073269139 271.6316012462611 40.17206125345706 271.70171390819064 29.44677734375 271.81640625 C20.09375034444156 271.9163761129432 10.741258584384695 271.980663767494 1.3877121210098267 272.0028966665268 C-3.5609113138777957 272.0158845468004 -8.508004157068513 272.04619778613994 -13.456134796142578 272.11931228637695 C-18.123673742403525 272.1877152065074 -22.789067251975098 272.2080248361019 -27.457059860229492 272.19308853149414 C-29.160609115947636 272.19581662796986 -30.86423780126387 272.2154008815189 -32.56735038757324 272.25406646728516 C-45.4324867918844 272.5315613642807 -52.409088684706376 269.448305061028 -62.08642578125 261.06201171875 C-63.958199051786664 259.5787639810196 -65.83264366068971 258.09887150226314 -67.71142578125 256.62451171875 C-78.77819629854037 247.3833544400784 -88.96830619658249 237.31483999611282 -99.08642578125 227.06201171875 C-93.1472955086785 242.99092332537043 -83.0929394266389 254.3033389513622 -71.08642578125 266.06201171875 C-69.41905645628611 267.7279754307573 -67.75232762968176 269.3945805846556 -66.08642578125 271.06201171875 C-95.47107851049446 271.13070538693455 -124.85572740563191 271.1836719180602 -154.24044379219413 271.21520770713687 C-157.7232028941546 271.21895905209544 -161.2059618376477 271.22284209442046 -164.688720703125 271.226806640625 C-165.38196679897607 271.22759357191626 -166.07521289482713 271.2283805032075 -166.78946644812822 271.22919128090143 C-177.95969306318352 271.2421838418728 -189.12987253903395 271.26580306230653 -200.30007135123014 271.29347010701895 C-211.7935478283955 271.3216967663136 -223.28699143127767 271.33800008677827 -234.78050190210342 271.34427720308304 C-241.22282427624225 271.34816263391485 -247.6650403609931 271.35718978408454 -254.107328414917 271.3792018890381 C-260.1918565173022 271.3998198400792 -266.27623625228864 271.40579532003085 -272.36079597473145 271.40133476257324 C-274.57401973530216 271.4021488017213 -276.7872493434656 271.4079616412407 -279.0004425048828 271.41962814331055 C-312.6396517890173 271.58800073255827 -354.09715316572596 268.7076496333036 -379.86376953125 244.28857421875 C-389.91222057870436 234.222463327627 -394.10743020127086 224.88854769119598 -394.33642578125 210.56201171875 C-394.0965110134672 197.19342771396168 -390.19708259908145 187.86332086895663 -381.05126953125 177.93701171875 C-367.8954425887143 165.38274346344747 -350.48195908046694 160.90019252424656 -332.71142578125 160.68701171875 C-332.00622802734375 160.6730737304688 -331.3010302734375 160.65913574218746 -330.574462890625 160.644775390625 C-317.2824299980923 160.75840773577045 -304.1382540060128 164.23864749741006 -291.64892578125 168.49951171875 C-290.97766662597655 168.7255508422852 -290.3064074707031 168.9515899658203 -289.61480712890625 169.18447875976563 C-268.08065405017186 176.46466113657766 -247.08039949145092 185.2580824155275 -226.04705810546875 193.8525390625 C-223.2642396702323 194.9893714807622 -220.4804751680548 196.12384618537556 -217.6962890625 197.25732421875 C-202.66325918444812 203.37970917876646 -187.66133176237662 209.57640698816704 -172.66845703125 215.79638671875 C-171.718211517334 216.19058303833003 -170.767966003418 216.58477935791018 -169.78892517089844 216.9909210205078 C-165.17223513933834 218.90650993117504 -160.55626965726526 220.82381251810955 -155.941650390625 222.744384765625 C-155.1020829772949 223.09337829589845 -154.26251556396483 223.4423718261719 -153.3975067138672 223.80194091796875 C-151.82529857917962 224.45549551082684 -150.253430049805 225.10986788479113 -148.6819610595703 225.76519775390625 C-145.8356505516283 226.94765985467984 -143.01158659332134 228.08695811472626 -140.08642578125 229.06201171875 C-140.30782226562496 228.4449536132813 -140.52921875000004 227.8278955078125 -140.75732421875 227.192138671875 C-156.98859098589958 181.50053157319508 -157.80605877068564 134.49171475385356 -137.20751953125 89.93310546875 C-123.18612967423138 60.53330510270928 -100.49127679844247 36.00284034964557 -72.08642578125 20.06201171875 C-71.79171386718747 19.896528320312484 -71.79171386718747 19.896528320312484 -70.30029296875 19.05908203125 C-48.840215004182255 7.199863906991254 -24.47695239423706 0.7274919152979464 0 0 Z M236.85107421875 27.37451171875 C236.15884765625003 27.618144531249982 235.46662109374995 27.86177734375002 234.75341796875 28.11279296875 C232.91357421875 29.06201171875 232.91357421875 29.06201171875 230.91357421875 32.06201171875 C232.89357421875002 32.06201171875 234.87357421875004 32.06201171875 236.91357421875 32.06201171875 C236.83107421875002 32.96951171875003 236.74857421875004 33.87701171875 236.66357421875 34.81201171875 C236.91357421875 38.06201171875 236.91357421875 38.06201171875 238.53857421875 40.49951171875 C240.91357421875 42.06201171875 240.91357421875 42.06201171875 244.10107421875 41.93701171875 C244.56513671874995 41.79263671875003 244.56513671874995 41.79263671875003 246.91357421875 41.06201171875 C248.39189681503558 38.10536652617873 247.9739020452381 35.31971434910918 247.91357421875 32.06201171875 C250.88357421875003 32.392011718749984 253.85357421875005 32.72201171874997 256.91357421875 33.06201171875 C254.05137486385127 30.199812363851265 252.55964909077773 29.290621155653582 248.91357421875 27.87451171875 C248.04732421874996 27.530332031249998 247.18107421875004 27.186152343749995 246.28857421875 26.83154296875 C242.69988158550973 25.66875933594025 240.29626289252963 26.11878874419483 236.85107421875 27.37451171875 Z M311.91357421875 80.06201171875 C312.91357421875 82.06201171875 312.91357421875 82.06201171875 312.91357421875 82.06201171875 Z M310.91357421875 82.06201171875 C310.27419921875 82.90763671874998 309.63482421875005 83.75326171874997 308.97607421875 84.62451171875 C302.9461329021359 91.9577544726726 295.83176196889474 95.08928246870175 286.91357421875 98.06201171875 C286.91357421875 104.99201171875 286.91357421875 111.92201171875001 286.91357421875 119.06201171875 C295.91357421875 120.18701171875 295.91357421875 120.18701171875 299.91357421875 120.06201171875 C303.8442563833404 112.42366481734746 306.8129436640223 104.77217911198488 309.28857421875 96.56201171875 C309.55105957031253 95.70188476562498 309.81354492187495 94.84175781249996 310.083984375 93.95556640625 C311.26748568895255 89.91213535777621 312.280299003463 86.32300445541557 311.91357421875 82.06201171875 C311.58357421874996 82.06201171875 311.25357421875003 82.06201171875 310.91357421875 82.06201171875 Z " fill="#0A2540" transform="translate(542.08642578125,375.93798828125)"/>
<path d="M0 0 C0.7051977539062477 -0.01393798828121362 1.4103955078124955 -0.027875976562540927 2.136962890625 -0.042236328125 C15.428995783157745 0.07139601702044729 28.57317177523717 3.5516357786600565 41.0625 7.8125 C41.73375915527345 8.038539123535202 42.40501831054689 8.26457824707029 43.09661865234375 8.497467041015625 C64.63077173107814 15.77764941782766 85.63102628979902 24.571070696777497 106.66436767578125 33.16552734375 C109.44718611101769 34.3023597620122 112.23095061319526 35.436834466625555 115.01513671875 36.5703125 C129.05903258146208 42.289792194814595 143.08277940443566 48.05704179241934 157.0758514404297 53.89982604980469 C159.942608852354 55.09682883252651 162.80999998739816 56.29230282493188 165.677490234375 57.487548828125 C169.3186622871484 59.00531375174057 172.9570941883552 60.52940375510809 176.593994140625 62.057373046875 C178.24226161315346 62.74549232516915 179.89061329356616 63.4334099447791 181.5390625 64.12109375 C182.28611953735356 64.43693420410159 183.033176574707 64.75277465820318 183.80287170410156 65.07818603515625 C187.38461314470646 66.56649606202996 190.77969953985212 67.80314687159364 194.625 68.375 C194.15558649258418 75.88561611865305 191.02562407773848 81.29194711311891 185.6875 86.5625 C163.64332620515557 103.82261905638882 122.88434710590559 98.5640056152231 96.546630859375 98.560302734375 C93.56968068521991 98.56022173994779 90.59288528627644 98.56713880945699 87.615966796875 98.580810546875 C-16.284108785531714 99.05012760528734 -16.284108785531714 99.05012760528734 -48.63671875 67.14453125 C-53.69080053680986 61.71676504272364 -57.01660639277361 56.45018082167917 -59.375 49.375 C-59.70500000000001 52.014999999999986 -60.035 54.65499999999997 -60.375 57.375 C-60.70500000000001 57.375 -61.035 57.375 -61.375 57.375 C-61.76485635949308 40.93605684137492 -59.85256045460724 29.745202375241092 -48.33984375 17.25 C-35.184016807464246 4.6957317446974685 -17.770533299216993 0.21318080549656315 0 0 Z " fill="#00B8D4" transform="translate(209.375,536.625)"/>
<path d="M0 0 C0.3796289062499909 -0.012246093749979536 0.3796289062499909 -0.012246093749979536 2.30078125 -0.07421875 C5.7282320050685485 -0.0922263721807326 7.948595798395786 -0.044062349967532555 10.7236328125 2.06494140625 C12.898332895756312 4.893007952122844 12.969062245827217 6.267198937774253 12.890625 9.796875 C12.884179687500023 10.309277343750011 12.884179687500023 10.309277343750011 12.8515625 12.90234375 C12.81804687500005 13.9658203125 12.784531249999986 15.029296875 12.75 16.125 C12.731953125000018 17.203945312500025 12.713906250000036 18.282890624999993 12.6953125 19.39453125 C12.648214152590185 22.055587878655672 12.582456001248374 24.714842544339376 12.5 27.375 C12.169999999999959 27.375 11.840000000000032 27.375 11.5 27.375 C11.5 23.745000000000005 11.5 20.11500000000001 11.5 16.375 C10.840000000000032 16.375 10.17999999999995 16.375 9.5 16.375 C9.252500000000055 17.24124999999998 9.004999999999995 18.107500000000016 8.75 19 C7.377578352989758 22.70553844692762 6.084023519112861 25.371945639949956 3.5 28.375 C-0.25 29.25 -0.25 29.25 -3.5 29.375 C-3.75652343750005 28.71113281250001 -4.013046874999986 28.047265625000023 -4.27734375 27.36328125 C-7.3151113396306755 20.356982263814643 -10.457359950242676 17.290254051097804 -17.5 14.375 C-17.08675743500578 9.10615729632417 -16.27055561518614 6.145555615186197 -12.5 2.375 C-8.687058804657454 -0.26901031793823904 -4.4662789021523395 0.007582816472222476 0 0 Z " fill="#00D4FF" transform="translate(863.5,409.625)"/>
<path d="M0 0 C-1.2851956519028818 2.8669749157834303 -2.5712925388169197 4.976077115680766 -5 7 C-5.659999999999968 7 -6.32000000000005 7 -7 7 C-4.605263157894683 0 -4.605263157894683 0 0 0 Z " fill="#0A2540" transform="translate(695,380)"/>
</svg>
